<?xml version="1.0" encoding="UTF-8" standalone="no"?>
<svg
   version="1.1"
   width="11.287276mm"
   height="11.285802mm"
   viewBox="0 0 133.31393 133.2962"
   id="svg1"
   xmlns="http://www.w3.org/2000/svg"
   xmlns:svg="http://www.w3.org/2000/svg">
  <defs
     id="defs1" />
  <path
     style="display:inline"
     d="m 46.313926,101.38565 c -2.77,-9.760002 -1.66,-14.740002 9,-16.000002 0,12.59 0.86,12.04 -9,16.000002 z"
     id="path15" />
  <path
     style="display:inline"
     d="m 60.313926,76.385648 9,-1 -0.99,14.37 -8.01,4.63 z"
     id="path14" />
  <path
     style="display:inline"
     d="m 74.313926,66.385648 10,-2 c 0,10.58 3.11,18.51 -10,21 z"
     id="path13" />
  <path
     style="display:inline"
     d="m 90.313926,52.385648 h 9 c 0,11.08 2.970004,19.84 -10,24 z"
     id="path11" />
  <path
     style="display:inline"
     d="m 92.313926,100.38565 -22,11.13999 c -17.54,7.75 -38.72,13.64 -58,13.86 -3.9899997,0.04 -12.00999973,0.69 -12.30999973,-5.04 -0.11,-2.17 2.12000003,-6.9 3.09000003,-8.96 l 7.3699997,-15.999992 29.44,-64 c 1.97,-4.46 7.82,-18.910001 11.52,-20.980001 2.17,-1.2099991 5.44,-1.0199991 7.89,-1.0199991 h 12 c 10.42,0.15 10.97,6.3999991 14.86,15.0000001 2.43,5.38 9.06,16.04 5.71,21.69 -1.53,2.57 -3.97,2.21 -5.55,4.62 -1.07,1.64 -0.91,3.9 -1.59,5.36 -1.63,3.51 -5.98,4.67 -9.43,5.33 l -12,-24 -32,73.999992 c 24.4,-3.28999 57.24,-23.589992 74.910004,-40.279992 l 27.09,-28.72 c -1.8,10.06 -6.45,20.37 -11.81,29 -2.71,4.35 -5.55,8.63 -10.19,11 l 13.47,28.999992 c 1.15,2.49 5.14,9.26 4.52,11.71 -0.63,2.48 -4.01,2.25 -5.99,2.29 -3.8,0.06 -14.97,0.44 -17.95,-0.85 -5.05,-2.21 -12.020004,-18.67999 -13.050004,-24.14999 z"
     id="path1" />
  <path
     style="fill:#ffffff;fill-opacity:1;stroke-width:0.552427"
     d="m 4.613604,124.14468 c -2.1036958,-0.4948 -3.88027223,-2.28496 -3.88027223,-3.90996 0,-1.74449 1.39431993,-4.89898 21.09698023,-47.729534 10.482597,-22.787557 20.344255,-44.290727 21.914794,-47.78482 3.59085,-7.988824 6.80461,-13.112818 8.668886,-13.821615 0.78327,-0.297799 6.139171,-0.541452 11.901999,-0.541452 11.743752,0 13.194795,0.319472 15.69756,3.456087 1.398109,1.752191 2.549694,4.118165 9.207522,18.917153 1.542671,3.429034 2.325806,6.03736 2.52374,8.405616 0.312124,3.734437 0.437583,3.532469 -5.226642,8.413484 -0.672207,0.579261 -1.365205,1.755173 -1.539986,2.613139 -0.851442,4.179505 -3.217826,6.696854 -7.431142,7.90522 L 75.833619,60.559399 69.585136,48.071896 C 66.148474,41.203768 63.204525,35.812343 63.043029,36.090953 61.50038,38.752299 30.500549,111.57156 30.787907,111.85892 c 0.504889,0.50489 8.638564,-1.18919 14.317864,-2.98211 18.691193,-5.90073 45.071115,-21.668002 59.963889,-35.840401 2.6671,-2.53809 9.65557,-9.726452 15.52993,-15.974135 5.87436,-6.247679 10.796,-11.244075 10.93698,-11.103097 0.45129,0.451289 -2.66459,9.251081 -5.15068,14.546419 -4.75329,10.124448 -10.55768,18.473528 -14.12582,20.318686 -0.87672,0.453364 -1.59403,1.106784 -1.59403,1.452039 0,0.60963 10.32131,23.095369 15.23918,33.199649 1.34114,2.75553 2.43844,5.70298 2.43844,6.54988 0,2.54729 -1.29653,2.82599 -12.0911,2.59909 -10.9941,-0.23109 -11.05013,-0.24959 -14.28741,-4.713 -2.520114,-3.47461 -6.406285,-11.56286 -7.981808,-16.61243 -0.68788,-2.20467 -1.37959,-3.94481 -1.537124,-3.866979 -0.157531,0.07784 -6.004043,3.016649 -12.992228,6.530709 -17.163375,8.63072 -29.04268,12.89841 -44.470266,15.97613 -12.439854,2.48168 -25.2424877,3.41134 -30.37012,2.20531 z"
     id="path2" />
  <path
     style="fill:#66ff00;fill-opacity:1;stroke-width:0.0345265"
     d="m 90.335911,64.330792 c 0.260343,-6.22373 0.474249,-11.343063 0.475342,-11.376294 0.0019,-0.05719 0.215656,-0.06041 3.989811,-0.06041 3.774782,0 3.987842,0.0031 3.988172,0.06041 0.003,0.475121 0.0887,2.947036 0.15569,4.479825 0.2069,4.731041 0.18853,6.480686 -0.088,8.378128 -0.61114,4.194163 -2.615796,6.895497 -6.541819,8.815326 -0.820389,0.40117 -1.894417,0.850954 -2.382934,0.997931 -0.06878,0.02062 -0.06366,-0.122312 0.403695,-11.294916 z"
     id="path16" />
  <path
     style="fill:#66ff00;fill-opacity:1;stroke-width:0.0345265"
     d="m 46.606411,100.49763 c -0.376774,-1.308248 -0.803116,-3.397433 -0.957525,-4.692117 -0.08881,-0.744554 -0.124875,-2.180479 -0.06981,-2.778611 0.178969,-1.943923 0.822648,-3.320769 2.075904,-4.440429 1.422268,-1.27065 3.699571,-2.114785 7.003078,-2.595846 l 0.149531,-0.02187 -0.01531,3.531203 c -0.01281,2.899114 -0.02531,3.630087 -0.07072,4.083626 -0.169594,1.694896 -0.42183,2.532615 -0.992473,3.296032 -0.79871,1.068528 -2.075572,1.788645 -5.947983,3.354502 -0.604839,0.24457 -1.104804,0.44468 -1.111035,0.44468 -0.0063,0 -0.03481,-0.0816 -0.06353,-0.18128 z"
     id="path17" />
  <path
     style="fill:#ff0000;fill-opacity:1;stroke-width:0.0345265"
     d="m 60.84415,85.162064 c 0,-4.568588 0.0037,-8.307822 0.0087,-8.309406 0.03475,-0.01156 7.883032,-0.883266 7.89136,-0.876451 0.01219,0.01 -0.882604,13.116043 -0.910304,13.331064 l -0.01844,0.143 -3.455191,1.997651 c -1.900354,1.098709 -3.468887,2.002828 -3.485631,2.00916 -0.0175,0.0066 -0.03031,-3.514769 -0.03031,-8.295018 z"
     id="path18" />
  <path
     style="fill:#55d400;fill-opacity:1;stroke-width:0.0345265"
     d="m 74.827425,75.781464 c 0,-4.935243 0.0041,-8.973166 0.0091,-8.973166 0.015,0 8.807164,-1.758092 8.883692,-1.776401 0.07037,-0.01687 0.07162,-0.0025 0.11275,1.30264 0.02281,0.725813 0.07962,2.065438 0.126155,2.976938 0.200906,3.936665 0.207594,5.335123 0.03291,6.905322 -0.418205,3.759496 -2.064313,5.970443 -5.541726,7.443289 -0.876641,0.371299 -2.20105,0.781298 -3.320682,1.027985 l -0.302124,0.06656 z"
     id="path19" />
  <path
     style="fill:#66ff00;fill-opacity:1;stroke-width:0.138106"
     d="m 74.896478,75.771452 v -8.909045 l 0.725057,-0.148593 c 0.398784,-0.08172 2.381347,-0.479983 4.405695,-0.885029 l 3.680636,-0.736451 0.117281,2.290831 c 0.0645,1.259956 0.116063,3.875599 0.114531,5.812541 -0.0022,2.842595 -0.04766,3.698061 -0.235593,4.436203 -0.661923,2.599734 -2.08021,4.358316 -4.490547,5.567979 -0.939829,0.471667 -2.910614,1.176568 -3.868243,1.383574 l -0.448845,0.09703 z"
     id="path20" />
</svg>
