<?xml version="1.0" encoding="UTF-8" standalone="no"?>
<svg
   version="1.1"
   width="49.868801mm"
   height="13.3774mm"
   viewBox="0 0 589 158"
   id="svg1"
   xmlns="http://www.w3.org/2000/svg"
   xmlns:svg="http://www.w3.org/2000/svg">
  <defs
     id="defs1" />
  <path
     id="path1"
     fill="none"
     stroke="#000000"
     stroke-width="1"
     d="m 96,95 c 0,0 -22,11.14 -22,11.14 -17.54,7.75 -38.72,13.64 -58,13.86 -3.99,0.04 -12.01,0.69 -12.31,-5.04 -0.11,-2.17 2.12,-6.9 3.09,-8.96 0,0 7.37,-16 7.37,-16 0,0 29.44,-64 29.44,-64 C 45.56,21.54 51.41,7.09 55.11,5.02 57.28,3.81 60.55,4 63,4 c 0,0 12,0 12,0 10.42,0.15 10.97,6.4 14.86,15 2.43,5.38 9.06,16.04 5.71,21.69 -1.53,2.57 -3.97,2.21 -5.55,4.62 -1.07,1.64 -0.91,3.9 -1.59,5.36 C 86.8,54.18 82.45,55.34 79,56 79,56 67,32 67,32 67,32 35,106 35,106 59.4,102.71 92.24,82.41 109.91,65.72 109.91,65.72 137,37 137,37 c -1.8,10.06 -6.45,20.37 -11.81,29 -2.71,4.35 -5.55,8.63 -10.19,11 0,0 13.47,29 13.47,29 1.15,2.49 5.14,9.26 4.52,11.71 -0.63,2.48 -4.01,2.25 -5.99,2.29 -3.8,0.06 -14.97,0.44 -17.95,-0.85 C 104,116.94 97.03,100.47 96,95 Z M 153.15,8.74 c 3.19,-0.82 15.72,-1.81 17.83,0.86 1.25,1.59 1.02,5.41 1.02,7.4 0,0 0,81 0,81 0,0 0,18 0,18 -0.04,1.95 0.1,4.63 -1.6,5.98 -1.59,1.25 -5.41,1.02 -7.4,1.02 0,0 -5,0 -5,0 -6.43,-0.04 -7.87,-0.16 -8,-7 0,0 0,-28 0,-28 0,0 0.86,-17 0.86,-17 0,0 0,-37 0,-37 0.08,-5.02 -2.08,-18.73 0,-22.77 0.53,-1.76 0.96,-1.57 2.29,-2.49 z M 508,9 c 0,0 21,0 21,0 0,0 0,44 0,44 4.58,-1.94 9.16,-4.01 14,-5.24 10.94,-2.78 27.55,-2.43 35.79,6.34 4.87,5.18 6.17,11.06 6.21,17.9 0,0 1,16 1,16 0,0 0,18 0,18 0,15.88 1.3,16.94 -8,17 0,0 -13,0 -13,0 0,0 0,-37 0,-37 0,-5.06 0.65,-12.56 -2.09,-16.9 -5,-7.93 -16.41,-5.79 -23.91,-3.67 -2.6,0.73 -6.63,1.88 -8.4,3.99 -1.91,2.27 -1.59,5.78 -1.6,8.58 0,0 0,45 0,45 0,0 -21,0 -21,0 z M 241,116 c 0,0 -12,4.1 -12,4.1 -7.94,1.93 -23.73,1.45 -31,-2.51 -20.17,-11 -19.18,-50.48 -3,-64.38 6.11,-5.25 15.11,-7.11 23,-7.21 0,0 18,0 18,0 0,0 12,0.96 12,0.96 0,0 13,0 13,0 0,0 0,74.04 0,74.04 -0.12,10.25 -2.51,20.91 -11,27.47 -12.19,9.41 -41.97,6.75 -57,5.53 0,0 0,-16 0,-16 0,0 27,0 27,0 5.66,-0.03 13.49,-0.5 17.35,-5.21 3.69,-4.5 3.65,-11.31 3.65,-16.79 z M 341,48 c 16.2,-2.14 48.37,-6.47 59.58,8.02 3.45,4.45 4.35,11.48 4.42,16.98 0,0 0,49 0,49 0,0 -20,0 -20,0 0,0 0,-4 0,-4 -12.43,4.14 -28.36,8.12 -41,2.47 -13.55,-6.06 -14.8,-28.56 -4.82,-36.68 5.06,-4.12 9.75,-4.31 15.82,-4.95 0,0 29,-0.84 29,-0.84 0.54,-4.39 1.45,-9.1 -2.3,-12.49 -2.66,-2.41 -6.33,-2.47 -9.7,-2.51 0,0 -31,0 -31,0 z m 99,3 c 13,-5.69 33.54,-7.74 44.99,2.21 16.32,14.2 15.03,54.05 -3.99,65.58 -10.95,6.64 -28.94,4.41 -40.96,2.21 2.41,8.61 0.05,14.2 0,22 0.03,2.29 1.19,6.39 -0.68,7.99 -2.49,2.11 -17.06,0.95 -20.36,0 0,0 0.87,-23.99 0.87,-23.99 0,0 0,-32 0,-32 0,0 0,-9 0,-9 0,0 0,-14 0,-14 0,0 -0.85,-11 -0.85,-11 0,0 0,-12.99 0,-12.99 3.41,-0.98 16.62,-2.1 19.39,0 1.21,0.94 1.16,1.76 1.59,2.99 z M 94,47 c 0,0 9,0 9,0 0,11.08 2.97,19.84 -10,24 z m 183,0 c 0,0 20,0 20,0 0,0 0,11 0,11 13.16,-11.13 16.87,-11 33,-11 0,0 0,18 0,18 -8.41,0.03 -16.27,1.29 -24,4.73 -2.34,1.05 -5.58,2.35 -6.98,4.61 -1.24,2 -1.02,5.35 -1.02,7.66 0,0 0,32 0,32 0,2.3 0.38,6.41 -1.6,7.98 -2.15,1.7 -15.94,1.02 -19.4,1.02 z M 78,61 c 0,0 10,-2 10,-2 0,10.58 3.11,18.51 -10,21 z m 163,1 c -8.08,0 -23.37,-1.24 -29.96,3 -9.12,5.88 -10.22,32.01 -0.94,38.15 5.32,3.51 16.98,2.52 22.9,0.81 2.09,-0.6 5.69,-1.64 6.98,-3.47 C 241.23,98.71 241,95.14 241,93 Z m 199,43 c 7.92,1.04 26,3.43 31.57,-3.13 5.07,-5.97 4.52,-18.6 3.43,-25.87 -0.56,-3.68 -1.48,-7.77 -4.39,-10.35 -3.05,-2.71 -6.8,-2.63 -10.61,-2.65 -10.87,-0.05 -10.13,1.01 -20,3 z M 64,71 c 0,0 9,-1 9,-1 0,0 -0.99,14.37 -0.99,14.37 C 72.01,84.37 64,89 64,89 Z M 50,96 c -2.77,-9.76 -1.66,-14.74 9,-16 0,12.59 0.86,12.04 -9,16 z m 334,-5 c 0,0 -9,0 -9,0 0,0 -4,0 -4,0 -2.69,0.03 -12.89,0.86 -14.85,2.02 -3.97,2.36 -4.28,10.47 -0.84,13.53 4.2,3.39 17.66,1.62 22.69,0 2.06,-0.45 4.71,-1.09 5.98,-2.98 1.4,-2.07 0.89,-8.73 1.02,-11.57 z" />
  <path
     style="fill:#ffffff;fill-opacity:1;stroke-width:0.552427"
     d="m 8.2996777,118.75904 c -2.1036958,-0.4948 -3.8802722,-2.28496 -3.8802722,-3.90996 0,-1.74449 1.3943199,-4.89898 21.0969805,-47.729542 10.482597,-22.787557 20.344255,-44.290727 21.914794,-47.78482 3.59085,-7.988823 6.80461,-13.112817 8.668886,-13.8216141 0.78327,-0.2977992 6.139171,-0.5414526 11.901999,-0.5414526 11.743752,0 13.194795,0.3194722 15.69756,3.4560875 1.398109,1.7521912 2.549694,4.1181652 9.207522,18.9171522 1.542671,3.429034 2.325806,6.03736 2.52374,8.405616 0.312124,3.734437 0.437583,3.532469 -5.226642,8.413484 -0.672207,0.579261 -1.365205,1.755173 -1.539986,2.613139 -0.851442,4.179505 -3.217826,6.696854 -7.431142,7.90522 L 79.519693,55.173751 73.27121,42.686248 C 69.834548,35.81812 66.890599,30.426695 66.729103,30.705305 c -1.542649,2.661346 -32.54248,75.480615 -32.255122,75.767975 0.504889,0.50489 8.638564,-1.18919 14.317864,-2.98212 18.691193,-5.900727 45.071115,-21.668 59.963885,-35.840399 2.6671,-2.53809 9.65557,-9.726452 15.52993,-15.974135 5.87436,-6.247679 10.796,-11.244075 10.93698,-11.103097 0.45129,0.451289 -2.66459,9.251081 -5.15068,14.546419 -4.75329,10.124448 -10.55768,18.473528 -14.12582,20.318686 -0.87672,0.453364 -1.59403,1.106784 -1.59403,1.452039 0,0.60963 10.32131,23.095366 15.23918,33.199657 1.34114,2.75553 2.43844,5.70298 2.43844,6.54988 0,2.54729 -1.29653,2.82599 -12.0911,2.59909 -10.9941,-0.23109 -11.05013,-0.24959 -14.28741,-4.713 -2.52011,-3.47461 -6.406281,-11.56287 -7.981804,-16.61244 -0.68788,-2.204669 -1.37959,-3.944808 -1.537124,-3.866977 -0.157531,0.07784 -6.004043,3.016651 -12.992228,6.530707 -17.163375,8.63073 -29.04268,12.89842 -44.470266,15.97614 -12.439854,2.48168 -25.242488,3.41134 -30.3701203,2.20531 z"
     id="path2" />
  <path
     style="fill:#ffffff;fill-opacity:1;stroke-width:0.552427"
     d="m 152.16075,121.30131 c -1.05021,-0.76842 -1.07002,-1.90323 -0.9604,-55.02337 0.0983,-47.603687 0.21522,-54.396415 0.95627,-55.52741 1.07112,-1.6347403 3.85298,-2.0826231 11.35053,-1.8274485 5.1481,0.175212 5.7261,0.3051585 6.69751,1.5057165 1.03543,1.279675 1.05935,2.732823 0.91712,55.701502 -0.14262,53.11192 -0.17118,54.40593 -1.21837,55.17157 -1.53618,1.12317 -16.20745,1.1227 -17.74266,-5.6e-4 z"
     id="path3" />
  <path
     style="fill:#ffffff;fill-opacity:1;stroke-width:0.552427"
     d="m 205.77856,154.10273 c -3.34217,-0.2134 -7.38179,-0.41964 -8.97691,-0.45829 l -2.90024,-0.0703 v -7.45775 -7.45775 h 15.56077 c 17.55464,0 21.18991,-0.42229 25.41458,-2.95233 4.24526,-2.54235 5.8978,-6.02088 6.69537,-14.0934 0.33286,-3.36898 0.47421,-6.25638 0.31413,-6.41646 -0.16006,-0.1601 -3.62655,0.88101 -7.70329,2.31354 l -7.41223,2.6046 -9.11503,-0.0172 c -13.61914,-0.0259 -19.20946,-1.75681 -24.81466,-7.68347 -12.53876,-13.257893 -12.09382,-42.61352 0.85791,-56.602941 3.60339,-3.892083 8.6217,-6.568126 14.95078,-7.972588 4.45075,-0.987647 14.83095,-1.128915 37.8963,-0.515745 l 13.69861,0.364161 -0.19584,40.928461 c -0.2161,45.163272 -0.0825,43.383532 -3.81075,50.769122 -6.26486,12.41063 -20.69295,16.61912 -50.45951,14.71843 z m 25.28692,-48.93796 c 5.43254,-1.23561 8.4318,-2.61542 9.61841,-4.42496 0.90992,-1.387591 1.01815,-3.280352 1.17375,-20.528374 l 0.1714,-18.999845 -12.32477,0.242656 c -14.83335,0.29203 -17.06457,0.799816 -20.88737,4.753643 -7.33868,7.590214 -7.95777,28.215964 -1.07115,35.68705 1.39197,1.51011 3.10416,2.66204 4.79461,3.22569 3.58894,1.1967 13.35543,1.21998 18.52512,0.0442 z"
     id="path4" />
  <path
     style="fill:#ffffff;fill-opacity:1;stroke-width:0.552427"
     d="m 282.42762,122.20166 -4.55751,-0.16044 V 84.774818 47.508428 h 9.11503 9.11502 v 5.800469 c 0,3.190257 0.18643,5.799084 0.41432,5.79739 0.22787,-0.0017 2.12849,-1.371399 4.22358,-3.043791 7.76437,-6.197849 11.71194,-7.660667 22.29284,-8.260881 l 6.2148,-0.35254 v 8.27209 8.272094 l -3.72887,0.360533 c -9.245,0.893873 -16.77424,2.894167 -22.47089,5.969856 -5.8787,3.173978 -5.52335,1.502905 -5.84093,27.468084 -0.20528,16.782418 -0.45019,22.757018 -0.95353,23.259758 -0.81299,0.81202 -7.5372,1.37149 -13.82386,1.15017 z"
     id="path5" />
  <path
     style="fill:#ffffff;fill-opacity:1;stroke-width:0.552427"
     d="m 352.42029,122.08818 c -8.65754,-1.37614 -13.65812,-4.9035 -16.96823,-11.9692 -1.38297,-2.95202 -1.51075,-3.78553 -1.51075,-9.8539 0,-6.148375 0.11625,-6.88057 1.60128,-10.09664 2.63393,-5.703631 7.52379,-8.974838 14.98777,-10.026419 2.11787,-0.298374 10.62981,-0.716926 18.91542,-0.930085 l 15.06467,-0.387565 0.32544,-1.296537 c 0.17906,-0.713098 0.23188,-3.147629 0.1175,-5.410073 -0.24562,-4.862371 -1.24318,-6.584391 -4.89599,-8.450883 -2.37408,-1.213103 -2.86093,-1.242956 -20.26928,-1.242956 h -17.8368 V 55.5186 c 0,-3.797927 0.18656,-6.907306 0.41434,-6.909734 0.22781,-0.0024 3.3974,-0.376874 7.04342,-0.832104 25.25228,-3.152923 41.7572,-0.561492 49.35234,7.748782 5.14545,5.629944 5.58895,8.854351 5.60307,40.734449 l 0.0125,24.721047 h -9.39122 -9.39126 v -1.97072 c 0,-1.61529 -0.17437,-1.92019 -0.96674,-1.69061 -0.53169,0.15406 -3.11493,0.9234 -5.74052,1.70966 -9.52482,2.85227 -20.08582,4.07288 -26.46555,3.05881 z m 17.70492,-13.26612 c 6.96861,-0.88122 11.60097,-2.2198 13.47606,-3.89405 1.68621,-1.5056 1.71887,-1.63245 1.90462,-7.398908 0.13,-4.040702 -0.0188,-6.118702 -0.48197,-6.675473 -1.24456,-1.499583 -21.58528,-0.736388 -27.72114,1.040107 -3.26424,0.945088 -4.49815,2.884095 -4.75765,7.476417 -0.32103,5.681627 1.12722,7.959927 5.87186,9.237247 3.15231,0.84866 6.24608,0.90538 11.70822,0.21466 z"
     id="path6" />
  <path
     style="fill:#ffffff;fill-opacity:1;stroke-width:0.552427"
     d="m 422.99207,150.89098 -2.65187,-0.35517 -0.11031,-50.932989 c -0.10938,-50.510488 -0.10094,-50.935518 0.99462,-51.236992 2.23078,-0.613795 12.2184,-0.939685 14.35481,-0.468386 1.62477,0.35843 2.42064,0.913726 3.03833,2.11991 0.46031,0.898847 0.84431,1.683111 0.85337,1.742811 0.009,0.05969 2.20475,-0.626795 4.87927,-1.525543 13.20125,-4.436125 26.66205,-4.162729 35.87475,0.728629 6.19245,3.287823 11.16659,10.538162 13.73709,20.023268 1.74005,6.420835 1.7333,20.141851 -0.0125,26.516434 -2.45381,8.956898 -6.37492,15.384808 -11.83847,19.406838 -7.62008,5.60957 -21.01513,6.93703 -38.79718,3.84482 l -4.23127,-0.73579 0.46241,2.00028 c 0.86603,3.74606 0.17281,27.36996 -0.83253,28.37538 -0.76722,0.76719 -11.23119,1.09769 -15.72002,0.4965 z m 39.09486,-44.29883 c 5.76727,-0.83347 9.25463,-2.63452 11.05731,-5.71058 2.3094,-3.940673 3.07615,-7.637841 3.10665,-14.979559 0.0503,-12.110995 -1.88574,-18.796198 -6.28748,-21.710878 -2.12565,-1.407552 -2.67787,-1.501665 -9.86663,-1.68157 -6.75836,-0.169125 -8.36316,-0.01875 -14.26665,1.335512 l -6.65173,1.526083 v 20.060458 20.060464 l 1.24296,0.29928 c 4.6573,1.12138 16.43499,1.5567 21.66557,0.8008 z"
     id="path7" />
  <path
     style="fill:#ffffff;fill-opacity:1;stroke-width:0.552427"
     d="M 508.78405,66.014687 V 9.9434821 h 9.66745 9.66744 V 32.086545 c 0,12.178683 0.18656,22.060197 0.41431,21.958919 0.22781,-0.101281 3.06312,-1.238769 6.30055,-2.527759 8.99581,-3.581712 12.27306,-4.236063 21.18263,-4.229454 6.98104,0.0053 8.157,0.152343 12.07949,1.511683 9.69001,3.35806 14.60493,9.232153 15.87299,18.970589 0.30938,2.376469 0.70359,15.041088 0.87591,28.143596 0.31249,23.760641 0.31031,23.825821 -0.86122,24.997261 -1.09672,1.0967 -1.74181,1.17451 -9.73713,1.17451 H 565.6839 V 98.431856 c 0,-27.246979 -0.10344,-28.050093 -4.10761,-31.905251 -1.45725,-1.403031 -3.29896,-2.51949 -4.89171,-2.965436 -3.88671,-1.088209 -12.3295,-0.492817 -18.34576,1.293756 -5.29268,1.571696 -6.98389,2.524912 -8.8047,4.962605 -1.1059,1.480599 -1.14359,2.261466 -1.29815,26.896618 l -0.15906,25.371742 h -9.64638 -9.64635 z"
     id="path8" />
  <path
     style="fill:#66ff00;fill-opacity:1;stroke-width:0.0345265"
     d="m 94.021985,58.945144 c 0.260343,-6.22373 0.474249,-11.343063 0.475342,-11.376294 0.0019,-0.05719 0.215656,-0.06041 3.989811,-0.06041 3.774782,0 3.987842,0.0031 3.988172,0.06041 0.003,0.475121 0.0887,2.947036 0.15569,4.479825 0.2069,4.731041 0.18853,6.480686 -0.088,8.378128 -0.61114,4.194163 -2.615796,6.895497 -6.541819,8.815326 -0.820389,0.40117 -1.894417,0.850954 -2.382934,0.997931 -0.06878,0.02062 -0.06366,-0.122312 0.403695,-11.294916 z"
     id="path16" />
  <path
     style="fill:#66ff00;fill-opacity:1;stroke-width:0.0345265"
     d="m 50.292485,95.111983 c -0.376774,-1.308249 -0.803116,-3.397434 -0.957525,-4.692118 -0.08881,-0.744554 -0.124875,-2.180479 -0.06981,-2.778611 0.178969,-1.943923 0.822648,-3.320769 2.075904,-4.440429 1.422268,-1.27065 3.699571,-2.114785 7.003078,-2.595846 l 0.149531,-0.02187 -0.01531,3.531203 c -0.01281,2.899114 -0.02531,3.630087 -0.07072,4.083626 -0.169594,1.694896 -0.42183,2.532615 -0.992473,3.296032 -0.79871,1.068528 -2.075572,1.788645 -5.947983,3.354507 -0.604839,0.244561 -1.104804,0.44468 -1.111035,0.44468 -0.0063,0 -0.03481,-0.08156 -0.06353,-0.181281 z"
     id="path17" />
  <path
     style="fill:#ff0000;fill-opacity:1;stroke-width:0.0345265"
     d="m 64.530224,79.776416 c 0,-4.568588 0.0037,-8.307822 0.0087,-8.309406 0.03475,-0.01156 7.883032,-0.883266 7.89136,-0.876451 0.01219,0.01 -0.882604,13.116043 -0.910304,13.331064 l -0.01844,0.143 -3.455191,1.997651 c -1.900354,1.098709 -3.468887,2.002828 -3.485631,2.00916 -0.0175,0.0066 -0.03031,-3.514769 -0.03031,-8.295018 z"
     id="path18" />
  <path
     style="fill:#55d400;fill-opacity:1;stroke-width:0.0345265"
     d="m 78.513499,70.395816 c 0,-4.935243 0.0041,-8.973166 0.0091,-8.973166 0.015,0 8.807164,-1.758092 8.883692,-1.776401 0.07037,-0.01687 0.07162,-0.0025 0.11275,1.30264 0.02281,0.725813 0.07962,2.065438 0.126155,2.976938 0.200906,3.936665 0.207594,5.335123 0.03291,6.905322 -0.418205,3.759496 -2.064313,5.970443 -5.541726,7.443289 -0.876641,0.371299 -2.20105,0.781298 -3.320682,1.027985 l -0.302124,0.06656 z"
     id="path19" />
  <path
     style="fill:#66ff00;fill-opacity:1;stroke-width:0.138106"
     d="m 78.582552,70.385804 v -8.909045 l 0.725057,-0.148593 c 0.398784,-0.08172 2.381347,-0.479983 4.405695,-0.885029 l 3.680636,-0.736451 0.117281,2.290831 c 0.0645,1.259956 0.116063,3.875599 0.114531,5.812541 -0.0022,2.842595 -0.04766,3.698061 -0.235593,4.436203 -0.661923,2.599734 -2.08021,4.358316 -4.490547,5.567979 -0.939829,0.471667 -2.910614,1.176568 -3.868243,1.383574 l -0.448845,0.09703 z"
     id="path20" />
</svg>
